<svg width="200" height="200" viewBox="0 0 200 200" fill="none" xmlns="http://www.w3.org/2000/svg">
    <rect width="200" height="200" fill="transparent"/>
    
    <path d="M100 20 C45.728 20 20 54.728 20 100 C20 120.579 26.697 139.776 38.093 155.034L20.89 180.258C19.982 181.565 20.932 183.333 22.454 183.333H36.983C38.003 183.333 38.988 183.02 39.813 182.435L62.71 166.273C74.773 175.766 87.051 180 100 180C154.272 180 180 145.272 180 100C180 54.728 154.272 20 100 20Z" fill="#20C997"/> 
    
    <path d="M70 90H130C135.523 90 140 85.5228 140 80C140 74.4772 135.523 70 130 70H70C64.4772 70 60 74.4772 60 80C60 85.5228 64.4772 90 70 90Z" fill="white"/>
    <path d="M70 110H130C135.523 110 140 105.523 140 100C140 94.4772 135.523 90 130 90H70C64.4772 90 60 94.4772 60 100C60 105.523 64.4772 110 70 110Z" fill="white"/>

    <path d="M90 125L100 115L110 125H90Z" fill="white"/>

</svg>